<?xml version="1.0" encoding="utf-8"?>
<!-- Generator: Adobe Illustrator 18.0.0, SVG Export Plug-In . SVG Version: 6.00 Build 0)  -->
<!DOCTYPE svg PUBLIC "-//W3C//DTD SVG 1.1//EN" "http://www.w3.org/Graphics/SVG/1.1/DTD/svg11.dtd">
<svg version="1.1" id="Layer_1" xmlns="http://www.w3.org/2000/svg" xmlns:xlink="http://www.w3.org/1999/xlink" x="0px" y="0px"
	 viewBox="0 0 190 50" enable-background="new 0 0 190 50" xml:space="preserve">
<g>
	<path fill="#1D1D1B" d="M128.6,11.7c1.1,0,2.4,0.1,3.7,0.3l-0.5,2.4c-1.1-0.3-2.3-0.4-3.5-0.4c-2.3,0-4.2,1-5.7,2.9
		c-1.5,2-2.2,4.4-2.2,7.4v14.9h-2.5V12.2h2.1l0.2,4.9h0.2c1.1-2,2.3-3.4,3.6-4.2C125.2,12.1,126.8,11.7,128.6,11.7z"/>
	<path fill="#1D1D1B" d="M137.5,39.3H135V12.2h2.5V39.3z"/>
	<path fill="#1D1D1B" d="M150.2,39.3l-10.5-27.1h2.5l7,18.4c0.9,2.4,1.6,4.4,2.1,6.2h0.1c0.7-2.3,1.4-4.3,2.1-6.2l7-18.3h2.5
		l-10.5,27.1H150.2z"/>
	<path fill="#1D1D1B" d="M175.4,39.8c-3.9,0-7-1.2-9.2-3.6c-2.2-2.4-3.3-5.8-3.3-10.2c0-4.3,1.1-7.8,3.2-10.4c2.1-2.6,5-3.9,8.6-3.9
		c3.2,0,5.7,1.1,7.5,3.3c1.8,2.2,2.8,5.2,2.8,9.1v2h-19.5c0,3.7,0.9,6.6,2.6,8.5c1.7,2,4.1,2.9,7.3,2.9c1.5,0,2.9-0.1,4.1-0.3
		c1.2-0.2,2.7-0.7,4.4-1.4v2.2c-1.5,0.7-2.9,1.1-4.2,1.4C178.4,39.7,177,39.8,175.4,39.8z M174.7,13.9c-2.6,0-4.7,0.9-6.3,2.6
		c-1.6,1.7-2.5,4.2-2.8,7.4h16.7c0-3.1-0.7-5.6-2-7.4C179,14.8,177.1,13.9,174.7,13.9z"/>
	<circle fill="#1D1D1B" cx="136.3" cy="5.2" r="2.3"/>
	<g>
		<path fill="#5593D7" d="M22.8,31.6c0,2.5-0.9,4.4-2.7,5.8c-1.8,1.4-4.3,2.1-7.4,2.1c-2.9,0-5.5-0.5-7.7-1.6v-5.4
			c1.8,0.8,3.4,1.4,4.7,1.7c1.3,0.3,2.4,0.5,3.5,0.5c1.3,0,2.2-0.2,2.9-0.7c0.7-0.5,1-1.2,1-2.2c0-0.5-0.1-1-0.4-1.4
			c-0.3-0.4-0.7-0.8-1.3-1.2c-0.6-0.4-1.8-1-3.5-1.9c-1.7-0.8-2.9-1.5-3.8-2.3c-0.8-0.7-1.5-1.6-2-2.5c-0.5-1-0.7-2.1-0.7-3.4
			c0-2.4,0.8-4.3,2.5-5.7c1.6-1.4,3.9-2.1,6.8-2.1c1.4,0,2.8,0.2,4.1,0.5c1.3,0.3,2.6,0.8,4.1,1.4l-1.9,4.5c-1.5-0.6-2.7-1-3.6-1.3
			c-1-0.2-1.9-0.4-2.8-0.4c-1.1,0-1.9,0.3-2.5,0.8c-0.6,0.5-0.9,1.2-0.9,2c0,0.5,0.1,1,0.4,1.3c0.2,0.4,0.6,0.7,1.1,1.1
			c0.5,0.4,1.7,1,3.7,1.9c2.6,1.2,4.3,2.4,5.3,3.7C22.4,28.3,22.8,29.8,22.8,31.6z"/>
		<path fill="#5593D7" d="M42.3,39.2l-2-6.5h-10l-2,6.5h-6.3l9.7-27.5h7.1l9.7,27.5H42.3z M39,27.8c-1.8-5.9-2.9-9.2-3.1-10
			c-0.2-0.8-0.4-1.4-0.5-1.8c-0.4,1.6-1.6,5.5-3.5,11.8H39z"/>
		<path fill="#5593D7" d="M55.2,39.2h-5.7V11.8h15.7v4.8h-10v7.1h9.3v4.7h-9.3V39.2z"/>
		<path fill="#5593D7" d="M82.4,39.2H66.6V11.8h15.8v4.8h-10v6h9.3v4.8h-9.3v7.1h10V39.2z"/>
	</g>
	<g>
		<g>
			<path fill="#1D1D1B" d="M103.9,43.4V7.6c0-2-1.7-3.7-3.7-3.7h-6.8c-2,0-3.7,1.7-3.7,3.7v35.8c0,2,1.7,3.7,3.7,3.7h6.8
				C102.2,47.1,103.9,45.4,103.9,43.4z M94,10.9c-0.7,0-1.3-0.6-1.3-1.3s0.6-1.3,1.3-1.3h5.7c0.7,0,1.3,0.6,1.3,1.3
				s-0.6,1.3-1.3,1.3H94z M94,16.3c-0.7,0-1.3-0.6-1.3-1.3c0-0.7,0.6-1.3,1.3-1.3h5.7c0.7,0,1.3,0.6,1.3,1.3c0,0.7-0.6,1.3-1.3,1.3
				H94z M94.3,39.8c0-1.4,1.1-2.5,2.5-2.5c1.4,0,2.5,1.1,2.5,2.5c0,1.4-1.1,2.5-2.5,2.5C95.4,42.3,94.3,41.2,94.3,39.8z"/>
		</g>
		<path fill="#1D1D1B" d="M111.4,10.5l-9.2-5.9l-0.5,0.2v2.3l8.4,5.4c1.1,0.7,1.8,1.9,1.8,3.3v9.4v0.6v9.4c0,1.3-0.7,2.5-1.8,3.3
			l-8.4,5.4v2.3l0.5,0.3l9.2-5.9c1.8-1.2,2.9-3.1,2.9-5.3v-9.4v-0.6v-9.4C114.3,13.6,113.2,11.6,111.4,10.5z"/>
	</g>
</g>
</svg>
