<?xml version="1.0" encoding="utf-8"?>
<!-- Generator: Adobe Illustrator 18.0.0, SVG Export Plug-In . SVG Version: 6.00 Build 0)  -->
<!DOCTYPE svg PUBLIC "-//W3C//DTD SVG 1.1//EN" "http://www.w3.org/Graphics/SVG/1.1/DTD/svg11.dtd">
<svg version="1.1" id="Layer_1" xmlns="http://www.w3.org/2000/svg" xmlns:xlink="http://www.w3.org/1999/xlink" x="0px" y="0px"
	 viewBox="0 0 350 120" enable-background="new 0 0 350 120" xml:space="preserve">
<linearGradient id="SVGID_1_" gradientUnits="userSpaceOnUse" x1="175" y1="120" x2="175" y2="100">
	<stop  offset="0" style="stop-color:#FFFFFF"/>
	<stop  offset="0.5462" style="stop-color:#FDFDFD"/>
	<stop  offset="0.743" style="stop-color:#F6F6F6"/>
	<stop  offset="0.8827" style="stop-color:#EBEBEB"/>
	<stop  offset="0.9954" style="stop-color:#DADADA"/>
	<stop  offset="1" style="stop-color:#D9D9D9"/>
</linearGradient>
<rect x="0" y="100" fill="url(#SVGID_1_)" width="350" height="20"/>
<g>
	<path fill="#1D1D1B" d="M209,43.3c1.2,0,2.4,0.1,3.7,0.4l-0.5,2.4c-1.1-0.3-2.3-0.4-3.6-0.4c-2.3,0-4.3,1-5.8,3
		c-1.5,2-2.2,4.5-2.2,7.5v15.1h-2.5V43.9h2.1l0.3,4.9h0.2c1.1-2,2.3-3.4,3.6-4.3C205.7,43.7,207.2,43.3,209,43.3z"/>
	<path fill="#1D1D1B" d="M218.1,71.3h-2.5V43.9h2.5V71.3z"/>
	<path fill="#1D1D1B" d="M231,71.3l-10.6-27.4h2.6l7.1,18.7c0.9,2.4,1.6,4.5,2.1,6.3h0.2c0.7-2.3,1.4-4.4,2.1-6.3l7.1-18.6h2.6
		l-10.6,27.4H231z"/>
	<path fill="#1D1D1B" d="M256.5,71.8c-4,0-7.1-1.2-9.3-3.7c-2.2-2.5-3.3-5.9-3.3-10.3c0-4.4,1.1-7.9,3.2-10.5c2.2-2.6,5.1-4,8.7-4
		c3.2,0,5.8,1.1,7.6,3.4c1.9,2.3,2.8,5.3,2.8,9.2v2h-19.8c0,3.8,0.9,6.6,2.6,8.6c1.7,2,4.2,3,7.4,3c1.6,0,2.9-0.1,4.1-0.3
		c1.2-0.2,2.7-0.7,4.5-1.4v2.3c-1.5,0.7-3,1.1-4.3,1.4C259.6,71.7,258.1,71.8,256.5,71.8z M255.8,45.6c-2.6,0-4.8,0.9-6.4,2.6
		c-1.6,1.7-2.5,4.3-2.8,7.5h17c0-3.2-0.7-5.7-2.1-7.5C260.1,46.5,258.2,45.6,255.8,45.6z"/>
	<circle fill="#1D1D1B" cx="216.8" cy="36.8" r="2.3"/>
	<g>
		<path fill="#5593D7" d="M101.8,63.5c0,2.5-0.9,4.5-2.7,5.9c-1.8,1.4-4.3,2.2-7.5,2.2c-3,0-5.6-0.6-7.9-1.7v-5.5
			c1.9,0.8,3.5,1.4,4.8,1.8c1.3,0.3,2.5,0.5,3.6,0.5c1.3,0,2.3-0.2,3-0.7c0.7-0.5,1-1.2,1-2.2c0-0.5-0.2-1-0.5-1.5
			c-0.3-0.4-0.7-0.8-1.3-1.2c-0.6-0.4-1.8-1-3.6-1.9c-1.7-0.8-3-1.6-3.8-2.3c-0.8-0.7-1.5-1.6-2-2.6c-0.5-1-0.8-2.1-0.8-3.4
			c0-2.5,0.8-4.4,2.5-5.8c1.7-1.4,4-2.1,6.9-2.1c1.4,0,2.8,0.2,4.1,0.5c1.3,0.3,2.7,0.8,4.1,1.4l-1.9,4.6c-1.5-0.6-2.7-1-3.7-1.3
			c-1-0.2-1.9-0.4-2.9-0.4c-1.1,0-2,0.3-2.6,0.8c-0.6,0.5-0.9,1.2-0.9,2c0,0.5,0.1,1,0.4,1.4c0.2,0.4,0.6,0.8,1.1,1.1
			c0.5,0.4,1.8,1,3.7,1.9c2.6,1.2,4.4,2.5,5.3,3.7C101.4,60.1,101.8,61.7,101.8,63.5z"/>
		<path fill="#5593D7" d="M121.6,71.2l-2-6.6h-10.1l-2,6.6h-6.3l9.8-27.9h7.2l9.8,27.9H121.6z M118.2,59.6c-1.9-6-2.9-9.4-3.1-10.2
			c-0.2-0.8-0.4-1.4-0.5-1.9c-0.4,1.6-1.6,5.6-3.6,12H118.2z"/>
		<path fill="#5593D7" d="M134.6,71.2h-5.8V43.4h15.9v4.8h-10.1v7.2h9.4v4.8h-9.4V71.2z"/>
		<path fill="#5593D7" d="M162.2,71.2h-16V43.4h16v4.8h-10.1v6.1h9.4v4.8h-9.4v7.2h10.1V71.2z"/>
	</g>
	<g>
		<g>
			<path fill="#1D1D1B" d="M184,75.5V39.2c0-2.1-1.7-3.7-3.7-3.7h-6.9c-2.1,0-3.7,1.7-3.7,3.7v36.3c0,2.1,1.7,3.7,3.7,3.7h6.9
				C182.3,79.2,184,77.5,184,75.5z M173.9,42.5c-0.8,0-1.4-0.6-1.4-1.4c0-0.8,0.6-1.4,1.4-1.4h5.8c0.8,0,1.4,0.6,1.4,1.4
				c0,0.8-0.6,1.4-1.4,1.4H173.9z M173.9,48c-0.8,0-1.4-0.6-1.4-1.4s0.6-1.4,1.4-1.4h5.8c0.8,0,1.4,0.6,1.4,1.4s-0.6,1.4-1.4,1.4
				H173.9z M174.3,71.8c0-1.4,1.1-2.6,2.6-2.6c1.4,0,2.6,1.1,2.6,2.6c0,1.4-1.1,2.6-2.6,2.6C175.4,74.4,174.3,73.2,174.3,71.8z"/>
		</g>
		<path fill="#1D1D1B" d="M191.6,42.1l-9.3-6l-0.5,0.2v2.4l8.5,5.5c1.1,0.7,1.8,2,1.8,3.3V57v0.6v9.6c0,1.3-0.7,2.6-1.8,3.3
			l-8.5,5.5v2.3l0.6,0.3l9.3-6c1.8-1.2,2.9-3.2,2.9-5.4v-9.6V57v-9.6C194.5,45.3,193.5,43.3,191.6,42.1z"/>
	</g>
</g>
</svg>
