<?xml version="1.0" encoding="utf-8"?>
<!-- Generator: Adobe Illustrator 18.0.0, SVG Export Plug-In . SVG Version: 6.00 Build 0)  -->
<!DOCTYPE svg PUBLIC "-//W3C//DTD SVG 1.1//EN" "http://www.w3.org/Graphics/SVG/1.1/DTD/svg11.dtd">
<svg version="1.1" id="Layer_1" xmlns="http://www.w3.org/2000/svg" xmlns:xlink="http://www.w3.org/1999/xlink" x="0px" y="0px"
	 viewBox="0 0 30 30" enable-background="new 0 0 30 30" xml:space="preserve">
<g>
	<g>
		<g>
			<circle fill="#2E8977" cx="15" cy="15" r="12.5"/>
		</g>
	</g>
	<g>
		<path fill="#3DB29C" d="M18.2,7.6l-9,9c-0.2,0.2-0.5,0.6-0.5,0.9L7.6,21c-0.1,0.3,0.1,0.4,0.4,0.4l3.6-1.1
			c0.3-0.1,0.7-0.3,0.9-0.5l9-9c0.2-0.2,0.2-0.6,0-0.8L19,7.6C18.8,7.4,18.4,7.4,18.2,7.6z M10.6,18.4l0,0.8l0.9,0.2l-2.1,0.7
			l-0.4-0.4l0.7-2.1l0.2,0.9L10.6,18.4z"/>
		<path fill="#3DB29C" d="M21.2,21.7h-9.5c-0.2,0-0.4-0.2-0.4-0.4c0-0.2,0.2-0.4,0.4-0.4h9.5c0.2,0,0.4,0.2,0.4,0.4
			C21.6,21.6,21.4,21.7,21.2,21.7z"/>
	</g>
</g>
</svg>
