<?xml version="1.0" encoding="utf-8"?>
<!-- Generator: Adobe Illustrator 18.0.0, SVG Export Plug-In . SVG Version: 6.00 Build 0)  -->
<!DOCTYPE svg PUBLIC "-//W3C//DTD SVG 1.1//EN" "http://www.w3.org/Graphics/SVG/1.1/DTD/svg11.dtd">
<svg version="1.1" id="Layer_1" xmlns="http://www.w3.org/2000/svg" xmlns:xlink="http://www.w3.org/1999/xlink" x="0px" y="0px"
	 viewBox="0 0 30 30" enable-background="new 0 0 30 30" xml:space="preserve">
<g>
	<g>
		<g>
			<circle fill="#3A6893" cx="15" cy="14.2" r="12.5"/>
		</g>
	</g>
	<path fill="#FFFFFF" d="M12.7,15.7c0.2-0.3,0.4-0.7,0.7-1c0.3-0.3,0.6-0.5,0.9-0.8c0.3-0.2,0.6-0.4,0.9-0.6
		c0.3-0.2,0.6-0.3,0.9-0.4c0.1-0.1,0.3-0.1,0.4-0.2l1.9,3.5l2.5-8.8L12,4.9l1.8,3.2c-0.2,0.2-0.4,0.3-0.7,0.5c-0.3,0.3-0.7,0.6-1,1
		c-0.2,0.2-0.4,0.4-0.6,0.6c-0.2,0.2-0.4,0.4-0.6,0.7c-0.4,0.5-0.7,1.1-1,1.7c-0.3,0.6-0.5,1.3-0.7,2.1c-0.1,0.7-0.2,1.5-0.1,2.2
		c0.2,1.5,0.8,2.8,1.6,3.7c0.7,1,1.6,1.7,2.3,2.2c0.8,0.5,1.4,0.9,1.9,1.1c0.5,0.2,0.8,0.3,0.8,0.3l0,0c0.1,0,0.2,0,0.3-0.1
		c0.1-0.1,0.1-0.3-0.1-0.4c0,0-0.2-0.2-0.6-0.5C15,23,14.5,22.5,14,21.8c-0.5-0.6-1.1-1.4-1.4-2.3c-0.4-0.9-0.5-1.8-0.3-2.7
		C12.3,16.4,12.5,16,12.7,15.7z"/>
</g>
</svg>
